<?xml version="1.0" encoding="UTF-8"?>
<svg version="1.1" xmlns="http://www.w3.org/2000/svg" width="58" height="56">
<path d="M0 0 C3.54199017 2.33449352 6.83498234 4.70092078 8.5625 8.6875 C9.10759874 14.86528578 8.95250123 19.33725597 5.75 24.8125 C0.53424687 28.85736977 -4.66559353 30.05193296 -11.25 29.8125 C-15.51381681 28.62810644 -17.44852184 26.98326462 -19.625 23.25 C-22.25136522 17.28298613 -22.24676434 11.42307328 -19.9375 5.375 C-15.12199669 -1.93743095 -8.06739746 -2.94770292 0 0 Z M-12.6875 5.75 C-14.73476328 9.76263602 -15.47066591 13.3092808 -15.25 17.8125 C-13.68818681 21.482761 -12.59089404 22.5852373 -9.25 24.8125 C-5.80732247 25.25199075 -3.94229398 25.22413426 -0.9375 23.4375 C1.62723926 19.4479056 1.96434034 15.50581433 1.75 10.8125 C0.26879808 6.97354509 0.26879808 6.97354509 -2.25 3.8125 C-7.92757348 3.13013397 -7.92757348 3.13013397 -12.6875 5.75 Z " fill="#262C3C" transform="translate(44.25,13.1875)"/>
<path d="M0 0 C8.57142857 -0.14285714 8.57142857 -0.14285714 12 1 C11.67 2.65 11.34 4.3 11 6 C10.34 6 9.68 6 9 6 C8.94165647 9.22909006 8.90628885 12.45804338 8.875 15.6875 C8.85824219 16.59951172 8.84148438 17.51152344 8.82421875 18.45117188 C8.79063831 23.06848227 8.76443815 26.81932331 11 31 C7.0186217 32.3271261 3.14954773 32.06915913 -1 32 C-1.33 31.01 -1.66 30.02 -2 29 C-1.67 28.34 -1.34 27.68 -1 27 C-0.01 27 0.98 27 2 27 C2 20.07 2 13.14 2 6 C0.68 5.34 -0.64 4.68 -2 4 C-1.34 2.68 -0.68 1.36 0 0 Z " fill="#272D3F" transform="translate(8,11)"/>
<path d="M0 0 C3.54199017 2.33449352 6.83498234 4.70092078 8.5625 8.6875 C9.12621568 15.07627773 8.53882944 19.1186399 5.75 24.8125 C4.625 21.0625 4.625 21.0625 5.75 18.8125 C6.33816159 13.99150335 6.19590263 10.64485157 3.875 6.3125 C1.99775337 3.77310082 1.99775337 3.77310082 -0.25 2.8125 C-0.58 3.8025 -0.91 4.7925 -1.25 5.8125 C-1.58 5.4825 -1.91 5.1525 -2.25 4.8125 C-7.54899103 4.17736874 -7.54899103 4.17736874 -12.125 6.25 C-13.76299179 9.9809813 -14.52397667 13.81510093 -15.25 17.8125 C-15.58 17.8125 -15.91 17.8125 -16.25 17.8125 C-16.58 14.8425 -16.91 11.8725 -17.25 8.8125 C-18.61532549 9.94951597 -18.61532549 9.94951597 -18.34765625 12.97265625 C-18.33605469 14.26042969 -18.32445312 15.54820313 -18.3125 16.875 C-18.30347656 18.16535156 -18.29445313 19.45570312 -18.28515625 20.78515625 C-18.27355469 21.78417969 -18.26195312 22.78320312 -18.25 23.8125 C-21.25898922 20.80351078 -21.42474562 18.08255036 -21.5 14 C-21.44563716 8.67244139 -20.17504904 5.13860092 -16.75 1 C-12.13722214 -2.65178247 -5.18006765 -1.89271703 0 0 Z " fill="#584536" transform="translate(44.25,13.1875)"/>
<path d="M0 0 C8.57142857 -0.14285714 8.57142857 -0.14285714 12 1 C11.67 2.65 11.34 4.3 11 6 C10.34 6 9.68 6 9 6 C9 9.96 9 13.92 9 18 C8.67 18 8.34 18 8 18 C7.67 13.71 7.34 9.42 7 5 C7.99 5 8.98 5 10 5 C10 4.01 10 3.02 10 2 C7.03 2 4.06 2 1 2 C1.99 3.485 1.99 3.485 3 5 C3.22705078 7.4519043 3.22705078 7.4519043 3.1953125 10.32421875 C3.18886719 11.35224609 3.18242187 12.38027344 3.17578125 13.43945312 C3.15902344 14.51130859 3.14226563 15.58316406 3.125 16.6875 C3.11597656 17.77095703 3.10695313 18.85441406 3.09765625 19.97070312 C3.0740734 22.6473571 3.04116126 25.32356797 3 28 C2.01 28 1.02 28 0 28 C0 28.99 0 29.98 0 31 C0.66 31.33 1.32 31.66 2 32 C0.68 31.67 -0.64 31.34 -2 31 C-1.67 29.68 -1.34 28.36 -1 27 C-0.01 27 0.98 27 2 27 C2 20.07 2 13.14 2 6 C0.68 5.34 -0.64 4.68 -2 4 C-1.34 2.68 -0.68 1.36 0 0 Z " fill="#986A36" transform="translate(8,11)"/>
<path d="M0 0 C0.66 0 1.32 0 2 0 C2.33 8.25 2.66 16.5 3 25 C3.99 25 4.98 25 6 25 C6.33 24.34 6.66 23.68 7 23 C7 24.32 7 25.64 7 27 C3.7 26.67 0.4 26.34 -3 26 C-3 25.01 -3 24.02 -3 23 C-2.01 23 -1.02 23 0 23 C0 15.41 0 7.82 0 0 Z " fill="#262B35" transform="translate(11,16)"/>
<path d="M0 0 C4.43909781 1.39514503 6.98024981 3.47695811 10 7 C11.71590669 10.95978467 11.68837777 15.94287108 10.328125 20.0078125 C9.60401667 21.69512154 8.80765038 23.35104714 8 25 C6.875 21.25 6.875 21.25 8 19 C8.58816159 14.17900335 8.44590263 10.83235157 6.125 6.5 C4.24775337 3.96060082 4.24775337 3.96060082 2 3 C1.67 3.99 1.34 4.98 1 6 C0.67 5.67 0.34 5.34 0 5 C-1.34747084 4.76924918 -2.70377565 4.58846937 -4.0625 4.4375 C-5.361875 4.293125 -6.66125 4.14875 -8 4 C-8 3.34 -8 2.68 -8 2 C-5.36 2 -2.72 2 0 2 C0 1.34 0 0.68 0 0 Z " fill="#5F4732" transform="translate(42,13)"/>
<path d="M0 0 C2.58484592 0.9804588 3.94843031 1.93922143 5.75 4.0625 C7.43727155 8.02758813 7.61414419 11.74087013 7 16 C6.34 16.99 5.68 17.98 5 19 C4.34 19 3.68 19 3 19 C3 19.66 3 20.32 3 21 C2.34 21 1.68 21 1 21 C1.33 20.195625 1.66 19.39125 2 18.5625 C3.17348359 14.38196472 3.76394637 10.31260047 3 6 C2.02035002 4.98005593 1.02132592 3.97820926 0 3 C0 2.01 0 1.02 0 0 Z " fill="#1B2B45" transform="translate(44,16)"/>
<path d="M0 0 C1.21236328 0.01353516 1.21236328 0.01353516 2.44921875 0.02734375 C3.37154297 0.04474609 3.37154297 0.04474609 4.3125 0.0625 C4.6425 1.0525 4.9725 2.0425 5.3125 3.0625 C2.6725 3.0625 0.0325 3.0625 -2.6875 3.0625 C-2.6875 3.7225 -2.6875 4.3825 -2.6875 5.0625 C-4.9975 5.0625 -7.3075 5.0625 -9.6875 5.0625 C-8.875 3.125 -8.875 3.125 -7.6875 1.0625 C-4.80538698 0.10179566 -2.98899956 -0.04331883 0 0 Z " fill="#31333B" transform="translate(36.6875,11.9375)"/>
<path d="M0 0 C0.33 0 0.66 0 1 0 C1.33 5.28 1.66 10.56 2 16 C1.01 16 0.02 16 -1 16 C-1.89893758 12.90765472 -2.16349234 10.09202643 -2.1875 6.875 C-2.20167969 6.00617187 -2.21585938 5.13734375 -2.23046875 4.2421875 C-2 2 -2 2 0 0 Z " fill="#1C2A48" transform="translate(27,21)"/>
<path d="M0 0 C3 1 3 1 4 3 C4.55564585 8.438918 4.46467618 12.52479327 1 17 C-0.28820226 14.42359548 0.12567158 13.02473928 0.5 10.1875 C0.91646027 6.54479055 1.06916549 3.56388496 0 0 Z " fill="#534136" transform="translate(44,19)"/>
<path d="M0 0 C0.99 0 1.98 0 3 0 C3.43957031 0.48082031 3.87914062 0.96164063 4.33203125 1.45703125 C6.67997223 3.62901412 8.54043507 3.50237853 11.6875 3.6875 C12.68136719 3.75324219 13.67523438 3.81898437 14.69921875 3.88671875 C15.45847656 3.92410156 16.21773437 3.96148437 17 4 C17 4.33 17 4.66 17 5 C6.24332088 6.76443551 6.24332088 6.76443551 1 3 C0.67 2.01 0.34 1.02 0 0 Z " fill="#60472C" transform="translate(26,37)"/>
<path d="M0 0 C0.33 0 0.66 0 1 0 C1.13277344 1.04800781 1.26554688 2.09601562 1.40234375 3.17578125 C1.58057235 4.55470778 1.75896641 5.93361293 1.9375 7.3125 C2.02451172 8.00279297 2.11152344 8.69308594 2.20117188 9.40429688 C2.59210135 12.40142288 3.0415004 15.12450119 4 18 C3.01 18 2.02 18 1 18 C-0.59412284 14.81175432 -0.10174735 11.37103338 -0.0625 7.875 C-0.05798828 7.12089844 -0.05347656 6.36679687 -0.04882812 5.58984375 C-0.03703499 3.72652873 -0.01909942 1.86325445 0 0 Z " fill="#152B4A" transform="translate(13,23)"/>
<path d="M0 0 C0.7734375 1.175625 0.7734375 1.175625 1.5625 2.375 C4.5162323 5.55594248 6.81606548 6.11493693 11 7 C11 7.33 11 7.66 11 8 C8.03 8 5.06 8 2 8 C2 7.34 2 6.68 2 6 C1.34 6 0.68 6 0 6 C0 4.02 0 2.04 0 0 Z " fill="#3E3534" transform="translate(29,31)"/>
<path d="M0 0 C0.33 0.66 0.66 1.32 1 2 C3.64 2 6.28 2 9 2 C9.33 1.34 9.66 0.68 10 0 C10 1.32 10 2.64 10 4 C6.7 3.67 3.4 3.34 0 3 C0 2.01 0 1.02 0 0 Z " fill="#463825" transform="translate(8,39)"/>
</svg>
